<svg id="bb70dc41-31d3-430f-a666-fda9b093edf1" data-name="Layer 1" xmlns="http://www.w3.org/2000/svg" viewBox="0 0 948.879 339.018"><title>bg_error_lines</title><path d="M231.605,20a9.971,9.971,0,0,1-7.251-3.106h0A10.012,10.012,0,1,1,231.605,20ZM231.6,2a8,8,0,0,0-5.8,13.507h0A8,8,0,1,0,231.6,2Z" transform="translate(0 -0.005)" fill="#226d7a"/><path d="M10.006,86.2l-.26,0a10.02,10.02,0,1,1,.26,0Zm-.011-18a8.037,8.037,0,1,0,.208,0C10.134,68.2,10.064,68.2,9.995,68.2Z" transform="translate(0 -0.005)" fill="#226d7a"/><path d="M901.007,164.2q-.13,0-.261,0a10.019,10.019,0,1,1,.261,0Zm-.012-18a8,8,0,0,0-5.794,13.511h0a8,8,0,1,0,6-13.508C901.134,146.2,901.064,146.2,901,146.2Z" transform="translate(0 -0.005)" fill="#226d7a"/><path d="M250.416,212.509a1.014,1.014,0,0,1-.417-.091L224.634,200.8a1,1,0,0,1-.191-1.7L245.2,183.2a1,1,0,0,1,1.594.629l4.607,27.517a1,1,0,0,1-.986,1.165Zm-23.437-12.836,22.139,10.141L245.1,185.8Z" transform="translate(0 -0.005)" fill="#226d7a"/><path d="M739.316,212.525a1,1,0,0,1-1-1.021l.571-26.14a1,1,0,0,1,1.487-.851L764.73,198.12a1,1,0,0,1-.038,1.767l-24.926,12.532A1,1,0,0,1,739.316,212.525Zm1.535-25.456-.5,22.817,21.756-10.94Z" transform="translate(0 -0.005)" fill="#226d7a"/><path d="M900.389,57.039a1,1,0,0,1-.866-.5l-14-24.135a1,1,0,0,1,.827-1.5l26.128-.989a1.02,1.02,0,0,1,.875.452,1,1,0,0,1,.064.982L901.289,56.474a1,1,0,0,1-.862.565Zm-12.3-24.2,12.216,21.066L910.9,31.977Z" transform="translate(0 -0.005)" fill="#226d7a"/><path d="M12.87,275.027a1,1,0,0,1-.473-1.882l27.929-14.914A1,1,0,1,1,41.269,260L13.34,274.909A1,1,0,0,1,12.87,275.027Z" transform="translate(0 -0.005)" fill="#226d7a"/><path d="M3.022,294.787A1,1,0,0,1,2.55,292.9L46.7,269.328a1,1,0,0,1,.942,1.764L3.492,294.669A1,1,0,0,1,3.022,294.787Z" transform="translate(0 -0.005)" fill="#226d7a"/><path d="M877.689,339.023a1,1,0,0,1-.883-.529c-3.192-5.987.77-13.269,6.112-17.829,4.788-4.086,9.927-6.423,14.763-6.767,1.568-6.323,5.923-11.65,8.308-14.2,11.746-12.542,27.445-18.876,42.022-16.939a1,1,0,1,1-.264,1.982c-13.92-1.85-28.991,4.25-40.3,16.324-2.183,2.332-6.145,7.152-7.7,12.808.331.016.66.043.987.079,3.41.379,7.617,2.214,9.193,6.228a7.691,7.691,0,0,1-.846,6.881,5.421,5.421,0,0,1-4.372,2.574h-.086c-3.283,0-5.743-3.046-6.731-6.089a16.766,16.766,0,0,1-.613-7.609c-4.252.444-8.785,2.594-13.065,6.246-4.58,3.91-8.3,10.386-5.646,15.367a1,1,0,0,1-.882,1.47Zm21.626-23.164a14.936,14.936,0,0,0,.482,7.073c.744,2.291,2.555,4.725,4.883,4.7a3.488,3.488,0,0,0,2.742-1.687,5.715,5.715,0,0,0,.646-5.038c-1.251-3.185-4.721-4.655-7.551-4.97Q899.921,315.876,899.315,315.859Z" transform="translate(0 -0.005)" fill="#1e6d7a"/></svg>